PathFileType	4	(X/Y/Z)	/Users/itak/Documents/Research/Walk-IL/dataset/trc/00549_00009.trc
DataRate	CameraRate	NumFrames	NumMarkers	Units	OrigDataRate	OrigDataStartFrame	OrigNumFrames
100.000000	100.000000	4	53	mm	100.000000	0	555
Frame#	Time	RPSI			LPSI			L3			STRN			T10			C7			CLAV			RBAK			LBAK			LSHO			LUPA			LAEL			LAOL			LWTS			LWPS			LFRA			LIFD			LHPS			LHTS			RSHO			RUPA			RAEL			RAOL			RWTS			RWPS			RFRA			RIFD			RHTS			RHPS			RBHD			LFHD			RFHD			LBHD			LHIP			RHIP			RASI			LASI			LKNE			LTHI			LANK			LTIP			LTOE			LMT1			LMT5			LHEE			RKNE			RTHI			RANK			RTIP			RTOE			RMT1			RMT5			RHEE			
		X1	Y1	Z1	X2	Y2	Z2	X3	Y3	Z3	X4	Y4	Z4	X5	Y5	Z5	X6	Y6	Z6	X7	Y7	Z7	X8	Y8	Z8	X9	Y9	Z9	X10	Y10	Z10	X11	Y11	Z11	X12	Y12	Z12	X13	Y13	Z13	X14	Y14	Z14	X15	Y15	Z15	X16	Y16	Z16	X17	Y17	Z17	X18	Y18	Z18	X19	Y19	Z19	X20	Y20	Z20	X21	Y21	Z21	X22	Y22	Z22	X23	Y23	Z23	X24	Y24	Z24	X25	Y25	Z25	X26	Y26	Z26	X27	Y27	Z27	X28	Y28	Z28	X29	Y29	Z29	X30	Y30	Z30	X31	Y31	Z31	X32	Y32	Z32	X33	Y33	Z33	X34	Y34	Z34	X35	Y35	Z35	X36	Y36	Z36	X37	Y37	Z37	X38	Y38	Z38	X39	Y39	Z39	X40	Y40	Z40	X41	Y41	Z41	X42	Y42	Z42	X43	Y43	Z43	X44	Y44	Z44	X45	Y45	Z45	X46	Y46	Z46	X47	Y47	Z47	X48	Y48	Z48	X49	Y49	Z49	X50	Y50	Z50	X51	Y51	Z51	X52	Y52	Z52	X53	Y53	Z53	

1	0	-897.5209350585938	1020.403198242188	305.7214660644531	-891.3692016601562	1024.154052734375	172.005859375	-888.9588012695312	1105.788818359375	235.1995697021484	-666.3186645507812	1301.07958984375	230.4848480224609	-905.961181640625	1231.299560546875	236.9100341796875	-868.2920532226562	1505.73583984375	250.4338836669922	-690.5074462890625	1410.910766601562	232.2621002197266	-931.3292236328125	1378.369262695312	336.8600769042969	-903.7734985351562	1452.187255859375	160.5687713623047	-811.1199340820312	1481.9501953125	75.58290100097656	-823.0051879882812	1355.650268554688	-4.457983493804932	-799.6489868164062	1133.706298828125	-26.61792945861816	-882.4976806640625	1124.393798828125	30.37695121765137	-702.769287109375	890.6861572265625	13.72912883758545	-753.2730102539062	867.3980102539062	-55.19459533691406	-776.455078125	1047.242553710938	-34.71372604370117	-705.063232421875	720.3978881835938	7.685832977294922	-743.2576904296875	808.1857299804688	-47.11182022094727	-686.5740966796875	814.80517578125	-6.309917449951172	-802.4172973632812	1469.976196289062	402.6994323730469	-817.9281616210938	1404.527954101562	470.4389038085938	-814.005615234375	1114.935913085938	515.9447021484375	-869.0887451171875	1097.655151367188	489.4326477050781	-657.6813354492188	911.03759765625	493.1996765136719	-726.1060180664062	872.369384765625	537.3202514648438	-802.4464111328125	1059.072509765625	521.9031982421875	-677.0765380859375	717.044921875	475.6280822753906	-659.0216064453125	799.1135864257812	481.0881958007812	-710.82275390625	796.6097412109375	533.1619873046875	-817.3255004882812	1683.679565429688	303.4671630859375	-650.9102172851562	1726.567626953125	186.4222412109375	-684.4512329101562	1721.4560546875	326.8878784179688	-771.7896118164062	1689.04736328125	143.6311340332031	-766.3594360351562	940.7022094726562	43.437744140625	-779.1437377929688	941.85791015625	428.7974243164062	-690.2893676757812	970.2473754882812	373.3671875	-685.382080078125	964.822265625	96.74022674560547	-757.6100463867188	494.6636352539062	108.8195266723633	-750.0906982421875	658.9644165039062	68.42642211914062	-835.4512329101562	30.9257926940918	122.5346450805664	-821.5847778320312	251.5791625976562	107.4007034301758	-624.4679565429688	39.83929443359375	174.2983245849609	-694.6328735351562	42.39450836181641	212.4378967285156	-712.8403930664062	33.76243591308594	104.4867935180664	-903.3939208984375	36.138916015625	179.6156311035156	-774.4468994140625	496.5025939941406	378.9163513183594	-748.1130981445312	785.615966796875	425.6062622070312	-860.89306640625	35.93404006958008	355.6661987304688	-779.4149780273438	355.1428833007812	364.5752258300781	-639.4437866210938	39.48448944091797	325.26904296875	-700.7269897460938	39.15424346923828	280.74072265625	-728.0778198242188	37.03214645385742	382.72607421875	-913.6167602539062	30.85544586181641	297.5096130371094	
2	0.01	-897.5490112304688	1020.398376464844	305.6833801269531	-891.4412841796875	1024.135131835938	171.9779052734375	-889.0169677734375	1105.785888671875	235.1558074951172	-666.326171875	1301.018188476562	230.5660095214844	-905.9913940429688	1231.267700195312	236.8340454101562	-868.3978881835938	1505.711547851562	250.4200592041016	-690.4893188476562	1410.987060546875	232.2475128173828	-931.3912963867188	1378.33837890625	336.880126953125	-903.892578125	1452.189453125	160.5375213623047	-811.2174682617188	1481.982788085938	75.59093475341797	-823.0266723632812	1355.704345703125	-4.552151203155518	-799.322998046875	1133.802490234375	-26.74641227722168	-882.23388671875	1124.316528320312	30.11798286437988	-701.8654174804688	891.0278930664062	13.76451587677002	-752.1796875	867.6607666015625	-55.23833084106445	-775.907470703125	1047.42919921875	-34.82562637329102	-703.5090942382812	720.7418823242188	7.681380748748779	-741.94140625	808.4229125976562	-47.10092544555664	-685.4318237304688	815.2025756835938	-6.333638191223145	-802.4554443359375	1469.973022460938	402.7018737792969	-817.9337158203125	1404.506713867188	470.4142761230469	-813.709228515625	1114.852905273438	515.8121948242188	-868.9453735351562	1097.580932617188	489.4911193847656	-657.1087646484375	911.2339477539062	492.9594116210938	-725.5838623046875	872.3944091796875	537.05810546875	-802.1026000976562	1059.0537109375	521.7730102539062	-676.353515625	717.1867065429688	475.2185974121094	-658.2998046875	799.330322265625	480.8173828125	-710.2037963867188	796.7479858398438	532.9544067382812	-817.399169921875	1683.66943359375	303.4855346679688	-651.0413208007812	1726.565307617188	186.3768615722656	-684.52734375	1721.401977539062	326.8444519042969	-771.9359130859375	1689.028442382812	143.6629791259766	-766.3457641601562	940.785888671875	43.31511306762695	-779.1080932617188	941.8601684570312	428.7104797363281	-690.3325805664062	970.1797485351562	373.37109375	-685.3681640625	964.8430786132812	96.66453552246094	-757.6610107421875	494.6591186523438	108.7712020874023	-750.2655029296875	659.0119018554688	68.33354949951172	-835.453125	30.92253494262695	122.5348052978516	-821.640380859375	251.5970306396484	107.388313293457	-624.4710083007812	39.84064483642578	174.2962951660156	-694.6648559570312	42.38505935668945	212.4219055175781	-712.83837890625	33.7532958984375	104.4845504760742	-903.4003295898438	36.14000701904297	179.6121673583984	-774.4464721679688	496.5173034667969	378.8953857421875	-748.0820922851562	785.6287231445312	425.5224914550781	-860.8931274414062	35.9338493347168	355.6659851074219	-779.3974609375	355.1439819335938	364.5554504394531	-639.4664916992188	39.47565841674805	325.2828674316406	-700.7257690429688	39.15624237060547	280.7420654296875	-728.0833740234375	37.03268432617188	382.7286071777344	-913.6112060546875	30.85612297058105	297.51123046875	
3	0.02	-897.5852661132812	1020.388488769531	305.6332397460938	-891.5216064453125	1024.109985351562	171.9424438476562	-889.0978393554688	1105.781005859375	235.1037902832031	-666.34375	1300.947631835938	230.6561279296875	-906.0391235351562	1231.230834960938	236.7453002929688	-868.5423583984375	1505.680786132812	250.4059600830078	-690.4808959960938	1411.07666015625	232.2249908447266	-931.4728393554688	1378.30078125	336.9024353027344	-904.0509033203125	1452.191772460938	160.4995880126953	-811.3385620117188	1482.01806640625	75.59890747070312	-823.0354614257812	1355.777099609375	-4.672776222229004	-798.90869140625	1133.923583984375	-26.91458892822266	-881.9075927734375	1124.22216796875	29.79985427856445	-700.7144775390625	891.4760131835938	13.79514598846436	-750.8147583007812	867.9774169921875	-55.29290390014648	-775.2088623046875	1047.651489257812	-34.96096038818359	-701.5010986328125	721.1087036132812	7.678730010986328	-740.295654296875	808.7288208007812	-47.09039688110352	-684.0174560546875	815.6793212890625	-6.35997200012207	-802.5083618164062	1469.968017578125	402.7017822265625	-817.943359375	1404.47705078125	470.3826599121094	-813.3458862304688	1114.753662109375	515.65380859375	-868.7435302734375	1097.48046875	489.538818359375	-656.3373413085938	911.4854125976562	492.6608276367188	-724.9105834960938	872.4323120117188	536.7144775390625	-801.6796264648438	1059.0224609375	521.6033935546875	-675.4254150390625	717.37060546875	474.6974182128906	-657.4197387695312	799.5780029296875	480.4461669921875	-709.4120483398438	796.9118041992188	532.6595458984375	-817.4909057617188	1683.656982421875	303.5042114257812	-651.1998901367188	1726.563232421875	186.3208465576172	-684.6138916015625	1721.342895507812	326.7909851074219	-772.1107177734375	1689.009155273438	143.6971893310547	-766.3355102539062	940.884765625	43.16671371459961	-779.0724487304688	941.8623046875	428.6018981933594	-690.386474609375	970.138916015625	373.3477172851562	-685.3411254882812	964.8726806640625	96.55711364746094	-757.7168579101562	494.6553344726562	108.7111511230469	-750.4817504882812	659.0753173828125	68.21533966064453	-835.4471435546875	30.92181205749512	122.5297088623047	-821.7012939453125	251.6120147705078	107.3609161376953	-624.4747924804688	39.84265518188477	174.2933197021484	-694.6952514648438	42.37626266479492	212.4069519042969	-712.8365478515625	33.74474716186523	104.4822311401367	-903.4075927734375	36.14045333862305	179.6085052490234	-774.4448852539062	496.5344848632812	378.8702087402344	-748.0455932617188	785.6424560546875	425.4240112304688	-860.8931274414062	35.9337043762207	355.665771484375	-779.375	355.1459045410156	364.5310974121094	-639.4840698242188	39.46904373168945	325.2937622070312	-700.7247314453125	39.15828704833984	280.7432556152344	-728.088623046875	37.03315353393555	382.7308959960938	-913.6055908203125	30.85703086853027	297.5125427246094	
4	0.03	-897.6287231445312	1020.372253417969	305.5721130371094	-891.6030883789062	1024.078247070312	171.9006652832031	-889.2015991210938	1105.77392578125	235.0471801757812	-666.3778076171875	1300.876220703125	230.7403411865234	-906.1072998046875	1231.191650390625	236.6503295898438	-868.7235717773438	1505.644775390625	250.3934478759766	-690.48974609375	1411.171142578125	232.1947479248047	-931.5722045898438	1378.258544921875	336.9247436523438	-904.2435913085938	1452.192749023438	160.45751953125	-811.4773559570312	1482.052001953125	75.60544586181641	-823.0230712890625	1355.86767578125	-4.81549596786499	-798.4185791015625	1134.064208984375	-27.11669540405273	-881.5303344726562	1124.115112304688	29.43533897399902	-699.3589477539062	892.0183715820312	13.81403350830078	-749.2339477539062	868.332763671875	-55.35597991943359	-774.384033203125	1047.896484375	-35.11265563964844	-699.081787109375	721.4700317382812	7.677787780761719	-738.3916625976562	809.0943603515625	-47.08315277099609	-682.3858032226562	816.21533203125	-6.38983678817749	-802.5767211914062	1469.960815429688	402.6959228515625	-817.9578857421875	1404.439086914062	470.3450012207031	-812.9369506835938	1114.645141601562	515.4805297851562	-868.4822998046875	1097.355102539062	489.5624084472656	-655.3853149414062	911.77978515625	492.3212585449219	-724.1060791015625	872.48583984375	536.2967529296875	-801.2007446289062	1058.978759765625	521.4004516601562	-674.3219604492188	717.592529296875	474.0820922851562	-656.4246826171875	799.8414306640625	479.9741516113281	-708.4739379882812	797.0908203125	532.2723999023438	-817.596923828125	1683.64306640625	303.5203247070312	-651.3764038085938	1726.56201171875	186.2572326660156	-684.7032470703125	1721.28466796875	326.7305908203125	-772.3016967773438	1688.992553710938	143.7292633056641	-766.3358154296875	940.9911499023438	43.00263595581055	-779.0438842773438	941.8650512695312	428.4783325195312	-690.448486328125	970.1444702148438	373.2867431640625	-685.3048706054688	964.9085693359375	96.42024993896484	-757.7715454101562	494.6528930664062	108.6423187255859	-750.7135620117188	659.1480102539062	68.08430480957031	-835.4347534179688	30.92277145385742	122.5195922851562	-821.7601928710938	251.6194610595703	107.3151321411133	-624.479248046875	39.84542465209961	174.2896118164062	-694.7203979492188	42.36924362182617	212.3949279785156	-712.8351440429688	33.73778533935547	104.4800567626953	-903.415283203125	36.13968658447266	179.6050567626953	-774.4411010742188	496.5527648925781	378.8427124023438	-748.0054931640625	785.656005859375	425.3166809082031	-860.8931274414062	35.93366622924805	355.6654968261719	-779.347412109375	355.1485595703125	364.5032958984375	-639.4927368164062	39.46626663208008	325.29931640625	-700.7242431640625	39.16027069091797	280.7443542480469	-728.0929565429688	37.03349685668945	382.7327270507812	-913.6008911132812	30.85793495178223	297.5128784179688	
